<svg xmlns="http://www.w3.org/2000/svg" viewBox="0 0 64 64" role="img" aria-label="HopeBridge bridge icon">
  <rect width="64" height="64" fill="#ffffff" />
  <g fill="#1f3fb3">
    <rect x="8" y="16" width="48" height="5" rx="2" />
    <rect x="10" y="14" width="3" height="10" rx="1" />
    <rect x="18" y="12" width="3" height="12" rx="1" />
    <rect x="27" y="11" width="3" height="13" rx="1" />
    <rect x="35" y="11" width="3" height="13" rx="1" />
    <rect x="44" y="12" width="3" height="12" rx="1" />
    <rect x="52" y="14" width="3" height="10" rx="1" />
    <rect x="8" y="24" width="48" height="8" rx="2" />
    <path d="M8 32h12v12H8c0-6.6 5.4-12 12-12z" />
    <path d="M26 32h12v12H26c0-6.6 5.4-12 12-12z" />
    <path d="M44 32h12v12H44c0-6.6 5.4-12 12-12z" />
  </g>
</svg>
